<svg width="1440" height="1403" viewBox="0 0 1440 1403" fill="none" xmlns="http://www.w3.org/2000/svg">
<path fill-rule="evenodd" clip-rule="evenodd" d="M-190.015 0L-139.091 82.1626C-88.167 164.325 13.6812 328.65 136.45 412.168C259.218 495.686 402.907 498.396 550.779 484.944C698.652 471.493 850.709 441.88 979.753 501.156C1108.8 560.431 1214.83 708.595 1339.69 784.032C1464.55 859.468 1608.24 862.179 1680.08 863.534L1751.93 864.889L1714.27 1010.34L1646.61 992.826C1578.95 975.309 1443.63 940.276 1308.31 905.243C1172.99 870.21 1037.67 835.177 902.348 800.144C767.028 765.11 631.707 730.077 496.387 695.044C361.066 660.011 225.746 624.978 90.425 589.945C-44.8956 554.912 -180.216 519.879 -247.876 502.362L-315.537 484.845L-190.015 0Z" fill="#FEFBF6"/>
<path fill-rule="evenodd" clip-rule="evenodd" d="M1613.58 1402.46L1562.65 1320.3C1511.73 1238.13 1409.88 1073.81 1287.11 990.29C1164.35 906.772 1020.66 904.062 872.784 917.514C724.911 930.965 572.854 960.578 443.81 901.303C314.765 842.027 208.733 693.864 83.8726 618.427C-40.9879 542.99 -184.677 540.28 -256.521 538.925L-328.365 537.57L-290.709 392.116L-223.048 409.633C-155.388 427.149 -20.0677 462.182 115.253 497.215C250.574 532.248 385.894 567.282 521.215 602.315C656.535 637.348 791.856 672.381 927.176 707.414C1062.5 742.447 1197.82 777.48 1333.14 812.513C1468.46 847.547 1603.78 882.58 1671.44 900.096L1739.1 917.613L1613.58 1402.46Z" fill="#FEFBF6"/>
</svg>
