<svg width="64" height="64" viewBox="0 0 64 64" fill="none" xmlns="http://www.w3.org/2000/svg">
<path opacity="0.5" d="M32 2.66669H16V8.00002H32V2.66669ZM21.3333 37.3334H26.6667V21.3334H21.3333V37.3334ZM42.7467 19.7067L46.5333 15.92C45.3867 14.56 44.1333 13.28 42.7733 12.16L38.9867 15.9467C34.8533 12.64 29.6533 10.6667 24 10.6667C10.7467 10.6667 0 21.4134 0 34.6667C0 47.92 10.72 58.6667 24 58.6667C37.28 58.6667 48 47.92 48 34.6667C48 29.0134 46.0267 23.8134 42.7467 19.7067ZM24 53.3334C13.68 53.3334 5.33333 44.9867 5.33333 34.6667C5.33333 24.3467 13.68 16 24 16C34.32 16 42.6667 24.3467 42.6667 34.6667C42.6667 44.9867 34.32 53.3334 24 53.3334Z" fill="#FDB100"/>
</svg>
