<svg width="64" height="64" viewBox="0 0 64 64" fill="none" xmlns="http://www.w3.org/2000/svg">
<g opacity="0.5">
<path d="M41.3333 34.6666C38.1333 34.6666 33.1467 35.5733 29.3333 37.3333C25.52 35.5466 20.5333 34.6666 17.3333 34.6666C11.5467 34.6666 0 37.5466 0 43.3333V50.6666H58.6667V43.3333C58.6667 37.5466 47.12 34.6666 41.3333 34.6666ZM30.6667 46.6666H4V43.3333C4 41.8933 10.8267 38.6666 17.3333 38.6666C23.84 38.6666 30.6667 41.8933 30.6667 43.3333V46.6666ZM54.6667 46.6666H34.6667V43.3333C34.6667 42.1066 34.1333 41.04 33.28 40.08C35.6267 39.28 38.5067 38.6666 41.3333 38.6666C47.84 38.6666 54.6667 41.8933 54.6667 43.3333V46.6666ZM17.3333 32C22.48 32 26.6667 27.8133 26.6667 22.6666C26.6667 17.52 22.48 13.3333 17.3333 13.3333C12.1867 13.3333 8 17.52 8 22.6666C8 27.8133 12.1867 32 17.3333 32ZM17.3333 17.3333C20.2667 17.3333 22.6667 19.7333 22.6667 22.6666C22.6667 25.6 20.2667 28 17.3333 28C14.4 28 12 25.6 12 22.6666C12 19.7333 14.4 17.3333 17.3333 17.3333ZM41.3333 32C46.48 32 50.6667 27.8133 50.6667 22.6666C50.6667 17.52 46.48 13.3333 41.3333 13.3333C36.1867 13.3333 32 17.52 32 22.6666C32 27.8133 36.1867 32 41.3333 32ZM41.3333 17.3333C44.2667 17.3333 46.6667 19.7333 46.6667 22.6666C46.6667 25.6 44.2667 28 41.3333 28C38.4 28 36 25.6 36 22.6666C36 19.7333 38.4 17.3333 41.3333 17.3333Z" fill="#FDB100"/>
</g>
</svg>
