<svg width="119" height="16" viewBox="0 0 119 16" fill="none" xmlns="http://www.w3.org/2000/svg">
<path d="M12.4807 11.976V15.512H11.3767V13H1.60069L1.58469 15.512H0.480688L0.496688 11.976H1.05669C1.79269 11.9333 2.30469 11.352 2.59269 10.232C2.88069 9.10133 3.05669 7.50133 3.12069 5.432L3.24869 1.8H10.8007V11.976H12.4807ZM4.17669 5.544C4.12335 7.25067 3.99002 8.65867 3.77669 9.768C3.57402 10.8667 3.22735 11.6027 2.73669 11.976H9.63269V2.824H4.27269L4.17669 5.544ZM17.8614 13.08C17.0508 13.08 16.3201 12.8987 15.6694 12.536C15.0188 12.1627 14.5068 11.6507 14.1334 11C13.7601 10.3493 13.5734 9.61333 13.5734 8.792C13.5734 7.97067 13.7601 7.23467 14.1334 6.584C14.5068 5.93333 15.0188 5.42667 15.6694 5.064C16.3201 4.70133 17.0508 4.52 17.8614 4.52C18.6721 4.52 19.4028 4.70133 20.0534 5.064C20.7041 5.42667 21.2108 5.93333 21.5734 6.584C21.9468 7.23467 22.1334 7.97067 22.1334 8.792C22.1334 9.61333 21.9468 10.3493 21.5734 11C21.2108 11.6507 20.7041 12.1627 20.0534 12.536C19.4028 12.8987 18.6721 13.08 17.8614 13.08ZM17.8614 12.072C18.4588 12.072 18.9921 11.9387 19.4614 11.672C19.9414 11.3947 20.3148 11.0053 20.5814 10.504C20.8481 10.0027 20.9814 9.432 20.9814 8.792C20.9814 8.152 20.8481 7.58133 20.5814 7.08C20.3148 6.57867 19.9414 6.19467 19.4614 5.928C18.9921 5.65067 18.4588 5.512 17.8614 5.512C17.2641 5.512 16.7254 5.65067 16.2454 5.928C15.7761 6.19467 15.4028 6.57867 15.1254 7.08C14.8588 7.58133 14.7254 8.152 14.7254 8.792C14.7254 9.432 14.8588 10.0027 15.1254 10.504C15.4028 11.0053 15.7761 11.3947 16.2454 11.672C16.7254 11.9387 17.2641 12.072 17.8614 12.072ZM28.6413 4.792C29.42 4.792 30.1133 4.968 30.7213 5.32C31.34 5.66133 31.82 6.14667 32.1613 6.776C32.5026 7.39467 32.6733 8.104 32.6733 8.904C32.6733 9.72533 32.492 10.456 32.1293 11.096C31.7773 11.7253 31.2813 12.216 30.6413 12.568C30.0013 12.92 29.2653 13.096 28.4333 13.096C27.036 13.096 25.9533 12.6053 25.1853 11.624C24.4173 10.6427 24.0333 9.288 24.0333 7.56C24.0333 5.75733 24.3746 4.376 25.0573 3.416C25.7506 2.456 26.828 1.80533 28.2893 1.464L32.0653 0.599999L32.2573 1.64L28.7053 2.456C27.5 2.72267 26.6146 3.19733 26.0493 3.88C25.484 4.552 25.1746 5.54933 25.1213 6.872C25.4626 6.22133 25.9373 5.71467 26.5453 5.352C27.1533 4.97867 27.852 4.792 28.6413 4.792ZM28.4653 12.152C29.052 12.152 29.5746 12.0187 30.0333 11.752C30.5026 11.4747 30.8653 11.0907 31.1213 10.6C31.388 10.1093 31.5213 9.55467 31.5213 8.936C31.5213 8.31733 31.3933 7.77333 31.1373 7.304C30.8813 6.83467 30.5186 6.472 30.0493 6.216C29.5906 5.94933 29.0626 5.816 28.4653 5.816C27.868 5.816 27.3346 5.94933 26.8653 6.216C26.4066 6.472 26.044 6.83467 25.7773 7.304C25.5213 7.77333 25.3933 8.31733 25.3933 8.936C25.3933 9.55467 25.5213 10.1093 25.7773 10.6C26.044 11.0907 26.412 11.4747 26.8813 11.752C27.3506 12.0187 27.8786 12.152 28.4653 12.152ZM37.9573 4.52C39.056 4.52 39.8986 4.79733 40.4853 5.352C41.072 5.896 41.3653 6.70667 41.3653 7.784V13H40.2773V11.688C40.0213 12.1253 39.6426 12.4667 39.1413 12.712C38.6506 12.9573 38.064 13.08 37.3813 13.08C36.4426 13.08 35.696 12.856 35.1413 12.408C34.5866 11.96 34.3093 11.368 34.3093 10.632C34.3093 9.91733 34.5653 9.34133 35.0773 8.904C35.6 8.46667 36.4266 8.248 37.5573 8.248H40.2293V7.736C40.2293 7.01067 40.0266 6.46133 39.6213 6.088C39.216 5.704 38.624 5.512 37.8453 5.512C37.312 5.512 36.8 5.60267 36.3093 5.784C35.8186 5.95467 35.3973 6.19467 35.0453 6.504L34.5333 5.656C34.96 5.29333 35.472 5.016 36.0693 4.824C36.6666 4.62133 37.296 4.52 37.9573 4.52ZM37.5573 12.184C38.1973 12.184 38.7466 12.04 39.2053 11.752C39.664 11.4533 40.0053 11.0267 40.2293 10.472V9.096H37.5893C36.1493 9.096 35.4293 9.59733 35.4293 10.6C35.4293 11.0907 35.616 11.48 35.9893 11.768C36.3626 12.0453 36.8853 12.184 37.5573 12.184ZM49.7494 8.648C50.8908 8.91467 51.4614 9.60267 51.4614 10.712C51.4614 11.448 51.1894 12.0133 50.6454 12.408C50.1014 12.8027 49.2908 13 48.2134 13H44.3894V4.584H48.1014C49.0614 4.584 49.8134 4.77067 50.3574 5.144C50.9014 5.51733 51.1734 6.05067 51.1734 6.744C51.1734 7.20267 51.0454 7.59733 50.7894 7.928C50.5441 8.248 50.1974 8.488 49.7494 8.648ZM45.4934 8.328H48.0214C48.6721 8.328 49.1681 8.20533 49.5094 7.96C49.8614 7.71467 50.0374 7.35733 50.0374 6.888C50.0374 6.41867 49.8614 6.06667 49.5094 5.832C49.1681 5.59733 48.6721 5.48 48.0214 5.48H45.4934V8.328ZM48.1654 12.104C48.8908 12.104 49.4348 11.9867 49.7974 11.752C50.1601 11.5173 50.3414 11.1493 50.3414 10.648C50.3414 10.1467 50.1761 9.77867 49.8454 9.544C49.5148 9.29867 48.9921 9.176 48.2774 9.176H45.4934V12.104H48.1654ZM54.1238 4.584H55.2598V11.272L60.8758 4.584H61.8838V13H60.7478V6.312L55.1478 13H54.1238V4.584ZM71.0594 5.592H67.8754V13H66.7394V5.592H63.5554V4.584H71.0594V5.592ZM76.3179 7.56C77.3739 7.57067 78.1739 7.80533 78.7179 8.264C79.2726 8.72267 79.5499 9.384 79.5499 10.248C79.5499 11.144 79.2513 11.832 78.6539 12.312C78.0673 12.792 77.2139 13.0267 76.0939 13.016L72.7019 13V4.584H73.8379V7.528L76.3179 7.56ZM76.0299 12.152C76.8086 12.1627 77.3953 12.008 77.7899 11.688C78.1953 11.3573 78.3979 10.8773 78.3979 10.248C78.3979 9.62933 78.2006 9.17067 77.8059 8.872C77.4113 8.57333 76.8193 8.41867 76.0299 8.408L73.8379 8.376V12.12L76.0299 12.152ZM91.8251 5.592H88.6411V13H87.5051V5.592H84.3211V4.584H91.8251V5.592ZM100.437 9.144H93.3969C93.4609 10.0187 93.7969 10.728 94.4049 11.272C95.0129 11.8053 95.7809 12.072 96.7089 12.072C97.2316 12.072 97.7116 11.9813 98.1489 11.8C98.5863 11.608 98.9649 11.3307 99.2849 10.968L99.9249 11.704C99.5516 12.152 99.0823 12.4933 98.5169 12.728C97.9623 12.9627 97.3489 13.08 96.6769 13.08C95.8129 13.08 95.0449 12.8987 94.3729 12.536C93.7116 12.1627 93.1943 11.6507 92.8209 11C92.4476 10.3493 92.2609 9.61333 92.2609 8.792C92.2609 7.97067 92.4369 7.23467 92.7889 6.584C93.1516 5.93333 93.6423 5.42667 94.2609 5.064C94.8903 4.70133 95.5943 4.52 96.3729 4.52C97.1516 4.52 97.8503 4.70133 98.4689 5.064C99.0876 5.42667 99.5729 5.93333 99.9249 6.584C100.277 7.224 100.453 7.96 100.453 8.792L100.437 9.144ZM96.3729 5.496C95.5623 5.496 94.8796 5.75733 94.3249 6.28C93.7809 6.792 93.4716 7.464 93.3969 8.296H99.3649C99.2903 7.464 98.9756 6.792 98.4209 6.28C97.8769 5.75733 97.1943 5.496 96.3729 5.496ZM108.92 5.592H104.104V13H102.968V4.584H108.92V5.592ZM110.561 4.584H111.697V11.272L117.313 4.584H118.321V13H117.185V6.312L111.585 13H110.561V4.584Z" fill="#25292D" fill-opacity="0.5"/>
</svg>
